<svg xmlns="http://www.w3.org/2000/svg" viewBox="0 0 500 500" class="icon icon-user"><path fill="currentColor" d="M250 50C139.72 50 50 139.72 50 250s89.72 200 200 200 200-89.72 200-200S360.28 50 250 50zM129.432 388.816c.336-.88.568-1.816.568-2.816 0-66.168 53.832-120 120-120s120 53.832 120 120c0 1 .232 1.936.568 2.824C338.248 416.92 296.096 434 250 434c-46.096 0-88.248-17.08-120.568-45.184zm255.984-14.392c-4.832-56.848-44.728-103.768-97.952-119.056C308.136 242.696 322 219.968 322 194c0-39.696-32.296-72-72-72-39.696 0-72 32.304-72 72 0 25.968 13.864 48.696 34.536 61.368-53.232 15.288-93.128 62.2-97.952 119.056C84.448 341.64 66 297.936 66 250c0-101.456 82.544-184 184-184 101.464 0 184 82.544 184 184 0 47.936-18.448 91.64-48.584 124.424zM250 250c-30.88 0-56-25.12-56-56s25.12-56 56-56c30.872 0 56 25.12 56 56s-25.128 56-56 56z"/></svg>