<svg viewBox="0 0 304 400" xmlns="http://www.w3.org/2000/svg"><g id="Page-1" fill="none" fill-rule="evenodd"><g id="Group-2"><path d="M151.999967,0 C106.757185,0.0506589633 70.0932591,36.8310012 70.0427604,82.2174385 L70.0427604,99.6547457 L21.8141049,99.6547457 C17.4186353,99.6537757 13.797771,103.117078 13.589406,107.521547 L0.00930529616,391.345877 C-0.0976487002,393.602292 0.72107278,395.804231 2.27491658,397.439204 C3.82876038,399.074176 5.98218937,399.999568 8.23400417,400 L295.765996,400 C298.017811,399.999568 300.17124,399.074176 301.725083,397.439204 C303.278927,395.804231 304.097649,393.602292 303.990695,391.345877 L290.410462,107.521547 C290.202097,103.117078 286.581233,99.6537757 282.185763,99.6547457 L233.957174,99.6547457 L233.957174,82.2174385 C233.906675,36.8310012 197.242749,0.0506589633 151.999967,0 Z M86.5113935,82.2174385 C86.5476426,45.9600029 115.857241,16.5868144 151.999934,16.5868144 C188.142627,16.5868144 217.452226,45.9600029 217.488475,82.2174385 L217.488475,99.6547457 L86.5113935,99.6547457 L86.5113935,82.2174385 Z M274.337472,116.17567 L287.126419,383.479075 L16.873515,383.479075 L29.6624626,116.17567 L70.0427604,116.17567 L70.0427604,180.981574 C70.0427607,185.543701 73.7293897,189.242036 78.277077,189.242036 C82.8247643,189.242036 86.5113933,185.543701 86.5113935,180.981574 L86.5113935,116.17567 L217.488541,116.17567 L217.488541,180.981574 C217.488541,185.543702 221.17517,189.242037 225.722857,189.242037 C230.270545,189.242037 233.957174,185.543702 233.957174,180.981574 L233.957174,116.17567 L274.337472,116.17567 Z" id="Shape" fill="currentColor" fill-rule="nonzero"></path></g></g></svg>