<svg xmlns="http://www.w3.org/2000/svg" viewBox="0 0 500 500" class="icon icon-search"><path fill="currentColor" d="M290.91 72c-76.722 0-139.092 62.37-139.092 139.09 0 35.406 13.31 67.728 35.156 92.302-7.566 7.566-114.148 114.116-115.056 115.185A8.076 8.076 0 0 0 70 423.818 8.182 8.182 0 0 0 78.182 432c2.922 0 4.673-1.215 6.008-2.557.803-.847 107.064-107.189 114.418-114.545 24.581 21.879 56.866 35.284 92.301 35.284C367.63 350.182 430 287.812 430 211.09S367.63 72 290.91 72zm0 16.364c67.876 0 122.726 54.85 122.726 122.727 0 67.878-54.85 122.727-122.727 122.727-67.877 0-122.727-54.85-122.727-122.727 0-67.877 54.85-122.727 122.727-122.727z"></path></svg>