<svg xmlns="http://www.w3.org/2000/svg" xmlns:xlink="http://www.w3.org/1999/xlink" viewBox="0 0 274 30"><defs><path id="a" d="M0 .135h13.125v10.943H0z"></path></defs><g fill="none" fill-rule="evenodd"><path fill="#676272" d="M136 30h138V0H136z"></path><g transform="translate(0 8.48)"><mask id="b" fill="#fff"><use xlink:href="#a"></use></mask><path fill="#676272" d="M8.555.508V.135h4.57v.373c-.807 0-1.322.121-1.543.364-.221.242-.332.806-.332 1.693v4.257c0 1.348-.443 2.394-1.328 3.139-.886.745-2.012 1.117-3.379 1.117-1.341 0-2.458-.375-3.35-1.125-.891-.752-1.337-1.795-1.337-3.131V2.565c0-.887-.108-1.451-.322-1.693C1.319.629.807.508 0 .508V.135h5.274v.373c-.808 0-1.319.121-1.534.364-.215.242-.322.806-.322 1.693V6.91c0 1.112.312 1.952.938 2.519.625.568 1.452.851 2.48.851 1.068 0 1.933-.283 2.598-.851.664-.567.996-1.407.996-2.519V2.565c0-.887-.107-1.451-.322-1.693C9.893.629 9.375.508 8.555.508" mask="url(#b)"></path></g><path fill="#676272" d="M30.098 11.613c0-.686-.21-1.248-.626-1.686-.417-.437-1.035-.656-1.855-.656h-1.719v4.683h1.719c.82 0 1.438-.216 1.855-.648.417-.43.626-.995.626-1.693m1.738 0c0 .863-.368 1.576-1.104 2.137-.735.562-1.768.843-3.095.843h-1.739v2.216c0 .9.108 1.47.323 1.712.214.242.725.363 1.532.363v.373H22.48v-.373c.794 0 1.302-.123 1.524-.372.221-.248.332-.816.332-1.703v-5.764c0-.887-.108-1.451-.323-1.694-.214-.242-.726-.363-1.533-.363v-.373h5.157c1.327 0 2.36.281 3.095.843.736.562 1.104 1.28 1.104 2.155m21.015-.604h-.41l-.097-.354c-.156-.533-.361-.89-.615-1.074-.254-.182-.805-.274-1.65-.274h-2.56v7.502c0 .9.108 1.47.323 1.712.215.242.732.363 1.553.363v.373h-5.293v-.373c.807 0 1.32-.124 1.542-.372.222-.248.332-.816.332-1.703V9.307h-2.558c-.833 0-1.38.092-1.64.274-.261.184-.47.541-.626 1.074l-.097.354h-.41l.175-2.394h11.856l.175 2.394zm11.602 2.927a5.42 5.42 0 0 0 1.161 3.414c.775 1 1.937 1.5 3.487 1.5s2.715-.5 3.496-1.5a5.393 5.393 0 0 0 1.172-3.414 5.46 5.46 0 0 0-1.162-3.423c-.775-1.005-1.943-1.507-3.506-1.507-1.536 0-2.695.502-3.476 1.507a5.43 5.43 0 0 0-1.172 3.423M69.1 19.56c-1.784 0-3.314-.55-4.59-1.65-1.276-1.1-1.914-2.423-1.914-3.973 0-1.55.638-2.873 1.914-3.973 1.276-1.1 2.806-1.65 4.59-1.65 1.797 0 3.334.55 4.61 1.65 1.276 1.1 1.914 2.424 1.914 3.973 0 1.55-.638 2.873-1.914 3.973-1.276 1.1-2.813 1.65-4.61 1.65m21.016 0h-.274l-3.144-9.028c-.235-.674-.482-1.1-.742-1.278-.26-.177-.795-.265-1.602-.265v-.373h5.488v.373c-.612 0-1.041.053-1.289.16-.247.105-.37.288-.37.547 0 .178.042.39.126.638l2.134 6.127 2.728-7.842.284-.003 2.72 7.817 2.137-6.099c.083-.235.124-.43.124-.584 0-.271-.114-.466-.341-.584-.229-.118-.61-.177-1.143-.177v-.373h4.394v.373c-.78 0-1.308.097-1.582.292-.273.195-.52.612-.742 1.25l-3.164 9.028h-.254l-2.734-7.857-2.754 7.857zm29.766-8.522c0-.884-.107-1.446-.322-1.687-.216-.242-.726-.362-1.534-.362v-.373h4.453v.373c-.807 0-1.321.12-1.542.363-.222.243-.332.807-.332 1.694v8.514h-.45l-7.949-8.922v6.172c0 .9.108 1.47.323 1.712.214.243.732.364 1.552.364v.372h-4.453v-.372c.794 0 1.302-.124 1.523-.373.222-.248.332-.816.332-1.703v-5.764c0-.887-.107-1.451-.322-1.694-.214-.242-.726-.363-1.533-.363v-.373l2.758-.003 7.496 8.413v-5.988z"></path><path fill="#FFF" d="M152.943 16.543c0 .899.104 1.467.313 1.703.207.237.71.355 1.503.355h.079c1.719 0 2.92-.458 3.603-1.374.684-.917 1.026-2.014 1.026-3.29 0-1.29-.342-2.389-1.026-3.3-.683-.91-1.884-1.366-3.603-1.366h-1.895v7.272zm-3.418 2.341c.794 0 1.302-.123 1.524-.372.22-.248.331-.816.331-1.703v-5.764c0-.887-.107-1.451-.322-1.693-.215-.243-.725-.364-1.533-.364v-.373h5.293c2.162 0 3.789.497 4.883 1.49 1.094.993 1.64 2.27 1.64 3.831 0 1.573-.544 2.853-1.63 3.84-1.088.987-2.719 1.48-4.893 1.48h-5.293v-.372zm29.747-7.271c0-.686-.21-1.248-.626-1.686-.417-.437-1.036-.656-1.855-.656h-1.719v4.683h1.72c.818 0 1.437-.216 1.854-.648.417-.43.626-.995.626-1.693zm.17 5.021c.6.65 1.213 1.173 1.839 1.569.625.396 1.225.622 1.799.681v.373h-3.223l-3.867-4.664h-.918v2.216c0 .9.107 1.47.322 1.712.215.242.726.363 1.533.363v.373h-5.273v-.373c.794 0 1.302-.123 1.524-.372.22-.248.331-.816.331-1.703v-5.764c0-.887-.107-1.451-.322-1.694-.215-.242-.726-.363-1.533-.363v-.373h5.157c1.327 0 2.36.281 3.094.843.737.562 1.104 1.28 1.104 2.155 0 .793-.305 1.46-.918 2.005-.612.544-1.466.869-2.56.976l1.912 2.04zm17.362-5.998l-2.013 4.276h4.058l-2.045-4.276zm-3.283 6.898c-.112.249-.168.462-.168.64 0 .249.137.43.41.542.274.112.703.169 1.29.169v.372h-4.57v-.372c.78 0 1.281-.086 1.503-.258.221-.171.501-.6.84-1.285l4.297-9.028h.253l4.317 9.028c.273.555.508.951.703 1.188.196.237.736.355 1.621.355v.372h-5.41v-.372c1.132 0 1.7-.237 1.7-.709 0-.177-.06-.39-.182-.638l-.941-1.97h-4.727l-.936 1.966zm26.316-5.921c0-.686-.208-1.248-.624-1.686-.417-.437-1.036-.656-1.856-.656h-1.719v4.683h1.719c.82 0 1.439-.216 1.856-.648.416-.43.624-.995.624-1.693m1.739 0c0 .863-.368 1.576-1.104 2.137-.736.562-1.767.843-3.096.843h-1.738v2.216c0 .9.108 1.47.323 1.712.215.242.726.363 1.533.363v.373h-5.273v-.373c.794 0 1.302-.123 1.523-.372.222-.248.332-.816.332-1.703v-5.764c0-.887-.108-1.451-.322-1.694-.215-.242-.726-.363-1.533-.363v-.373h5.155c1.329 0 2.36.281 3.096.843.736.562 1.104 1.28 1.104 2.155m9.394 7.271c.794 0 1.302-.123 1.523-.372.222-.248.333-.816.333-1.703v-5.764c0-.887-.108-1.451-.323-1.693-.214-.243-.725-.364-1.533-.364v-.373h8.907l.175 2.341h-.41l-.098-.354c-.155-.52-.361-.872-.615-1.055-.254-.184-.804-.276-1.65-.276h-2.891v4.009h.977c.976 0 1.598-.097 1.865-.293.267-.195.4-.665.4-1.41h.41v4.062h-.41c0-.745-.133-1.215-.4-1.41-.267-.195-.89-.293-1.865-.293h-.977v2.6c0 .89.108 1.457.323 1.7.214.243.725.365 1.533.365h1.68c.832 0 1.383-.095 1.649-.284.267-.189.472-.543.615-1.064l.099-.355h.41l-.157 2.359h-9.57v-.373zm20.39.674h-.409v-3.901h.39c.104.709.359 1.418.762 2.128.404.71 1.354 1.064 2.852 1.064.69 0 1.27-.183 1.738-.55.469-.366.703-.833.703-1.4 0-.39-.192-.76-.576-1.11-.384-.348-.942-.694-1.67-1.037l-1.875-.869a4.273 4.273 0 0 1-1.544-1.197 2.682 2.682 0 0 1-.624-1.73c0-.756.301-1.386.905-1.888.603-.503 1.38-.754 2.326-.754.533 0 .97.061 1.315.186.344.124.697.305 1.06.54.144-.106.26-.221.352-.345.09-.124.162-.28.213-.47h.411v3.902h-.41c-.092-.887-.356-1.626-.792-2.217-.436-.591-1.168-.887-2.196-.887-.547 0-1 .15-1.358.452-.358.302-.537.677-.537 1.126 0 .437.176.81.528 1.117.35.307.963.668 1.837 1.081l1.874.87c.716.331 1.233.73 1.552 1.197.319.468.479.967.479 1.5 0 .945-.36 1.714-1.075 2.305-.716.592-1.595.887-2.636.887-.587 0-1.234-.139-1.945-.416-.709-.278-1.076-.417-1.102-.417-.126.095-.24.213-.34.355-.101.142-.17.301-.207.478"></path></g></svg>